<svg xmlns="http://www.w3.org/2000/svg" viewBox="0 0 800 680" width="800" height="680">
<defs><linearGradient id="bg8" x1="0" y1="0" x2="1" y2="1"><stop offset="0" stop-color="#003C42"/><stop offset="1" stop-color="#005E69"/></linearGradient></defs>
<rect width="800" height="680" fill="url(#bg8)"/>
<g transform="translate(400,340)">
  <circle r="150" fill="none" stroke="#00ABBE" stroke-width="2" stroke-dasharray="3 10" opacity="0.5"/>
  <circle r="90" fill="#00808E" opacity="0.9"/>
  <circle cy="-24" r="34" fill="#FFFFFF"/>
  <path d="M-46,42 C-46,-4 46,-4 46,42 L46,70 L-46,70 Z" fill="#FFFFFF"/>
</g>

    <circle cx="400" cy="130" r="34" fill="#FFFFFF"/>
    <text x="400" y="130" text-anchor="middle" font-size="30" dominant-baseline="central">📱</text>
    <text x="400" y="186" text-anchor="middle" font-family="Montserrat, sans-serif" font-weight="700" font-size="12" fill="#FFFFFF">Phone use</text>
    
    <circle cx="610" cy="220" r="34" fill="#FFFFFF"/>
    <text x="610" y="220" text-anchor="middle" font-size="30" dominant-baseline="central">😴</text>
    <text x="610" y="276" text-anchor="middle" font-family="Montserrat, sans-serif" font-weight="700" font-size="12" fill="#FFFFFF">Fatigue</text>
    
    <circle cx="650" cy="420" r="34" fill="#FFFFFF"/>
    <text x="650" y="420" text-anchor="middle" font-size="30" dominant-baseline="central">🚬</text>
    <text x="650" y="476" text-anchor="middle" font-family="Montserrat, sans-serif" font-weight="700" font-size="12" fill="#FFFFFF">Smoking</text>
    
    <circle cx="500" cy="560" r="34" fill="#FFFFFF"/>
    <text x="500" y="560" text-anchor="middle" font-size="30" dominant-baseline="central">🔗</text>
    <text x="500" y="616" text-anchor="middle" font-family="Montserrat, sans-serif" font-weight="700" font-size="12" fill="#FFFFFF">No seatbelt</text>
    
    <circle cx="300" cy="560" r="34" fill="#FFFFFF"/>
    <text x="300" y="560" text-anchor="middle" font-size="30" dominant-baseline="central">👀</text>
    <text x="300" y="616" text-anchor="middle" font-family="Montserrat, sans-serif" font-weight="700" font-size="12" fill="#FFFFFF">Eyes off road</text>
    
    <circle cx="150" cy="420" r="34" fill="#FFFFFF"/>
    <text x="150" y="420" text-anchor="middle" font-size="30" dominant-baseline="central">⚠️</text>
    <text x="150" y="476" text-anchor="middle" font-family="Montserrat, sans-serif" font-weight="700" font-size="12" fill="#FFFFFF">Distraction</text>
    
    <circle cx="190" cy="220" r="34" fill="#FFFFFF"/>
    <text x="190" y="220" text-anchor="middle" font-size="30" dominant-baseline="central">🚫</text>
    <text x="190" y="276" text-anchor="middle" font-family="Montserrat, sans-serif" font-weight="700" font-size="12" fill="#FFFFFF">Camera blocked</text>
    
<g transform="translate(60,60)">
  <rect width="220" height="40" rx="20" fill="#FFFFFF"/>
  <circle cx="22" cy="20" r="6" fill="#1E8E5A"/>
  <text x="38" y="25" font-family="Montserrat, sans-serif" font-weight="800" font-size="13" fill="#17181A">AI Driver Monitoring</text>
</g>
</svg>