<svg xmlns="http://www.w3.org/2000/svg" viewBox="0 0 960 600" width="960" height="600">
<defs><linearGradient id="bg5" x1="0" y1="0" x2="1" y2="1"><stop offset="0" stop-color="#003C42"/><stop offset="1" stop-color="#005E69"/></linearGradient></defs>
<rect width="960" height="600" fill="url(#bg5)"/>
<rect x="40" y="40" width="880" height="520" rx="16" fill="#FFFFFF"/>
<rect x="40" y="40" width="880" height="420" rx="16" fill="#F2FBFC"/>
<path d="M100 380 C 220 300, 260 340, 340 260 S 480 200, 540 260 S 680 200, 760 150" stroke="#00ABBE" stroke-width="4" fill="none" stroke-linecap="round" stroke-dasharray="2 12"/>
<circle cx="100" cy="380" r="8" fill="#00808E"/>
<circle cx="340" cy="260" r="8" fill="#F99E4B"/>
<circle cx="540" cy="260" r="9" fill="#00808E"/>
<circle cx="760" cy="150" r="11" fill="#00808E"/>
<circle cx="760" cy="150" r="20" fill="none" stroke="#00808E" stroke-width="2" opacity="0.5"/>
<rect x="450" y="110" width="180" height="14" rx="7" fill="#B9C4C6" opacity="0.5"/>
<rect x="600" y="330" width="60" height="60" rx="10" fill="none" stroke="#F99E4B" stroke-width="2" stroke-dasharray="5 5" opacity="0.7"/>
<text x="608" y="322" font-family="Montserrat, sans-serif" font-weight="700" font-size="11" fill="#5C6B6D">Geofence</text>
<rect x="60" y="480" width="840" height="60" rx="12" fill="#F2FBFC"/>
<text x="86" y="505" font-family="Montserrat, sans-serif" font-weight="800" font-size="13" fill="#17181A">18 vehicles active</text>
<text x="86" y="524" font-family="Montserrat, sans-serif" font-weight="600" font-size="11" fill="#5C6B6D">2 idling · 1 geofence alert · route history synced</text>
<circle cx="800" cy="510" r="8" fill="#1E8E5A"/>
</svg>